<?xml version="1.0" standalone="no"?>
<!DOCTYPE svg PUBLIC "-//W3C//DTD SVG 20010904//EN"
 "http://www.w3.org/TR/2001/REC-SVG-20010904/DTD/svg10.dtd">
<svg version="1.0" xmlns="http://www.w3.org/2000/svg"
 width="400.000000pt" height="400.000000pt" viewBox="0 0 400.000000 400.000000"
 preserveAspectRatio="xMidYMid meet">

<g transform="translate(0.000000,400.000000) scale(0.100000,-0.100000)"
fill="#000000" stroke="none">
<path d="M1793 3236 c-56 -25 -57 -35 -54 -331 3 -298 6 -315 60 -315 54 0 55
7 47 290 l-7 260 102 0 102 0 -6 -256 c-4 -163 -3 -264 4 -275 14 -27 75 -26
89 2 7 12 14 124 17 293 l6 272 -31 35 -30 34 -134 3 c-98 1 -141 -2 -165 -12z"/>
<path d="M1507 2960 c-501 -211 -764 -769 -612 -1295 51 -176 134 -315 269
-451 179 -179 369 -274 621 -311 321 -47 668 70 901 305 162 163 273 382 305
601 16 114 7 323 -20 423 -47 181 -136 340 -266 477 -97 101 -196 173 -319
232 -117 57 -166 53 -166 -12 0 -32 1 -33 96 -75 262 -114 467 -354 546 -639
26 -92 35 -298 18 -402 -63 -391 -353 -698 -748 -790 -111 -26 -329 -23 -434
5 -297 80 -522 266 -649 536 -66 142 -84 228 -83 406 0 127 4 169 22 234 79
285 260 509 512 630 41 20 86 42 100 49 28 14 39 59 20 82 -20 24 -47 23 -113
-5z"/>
<path d="M1552 2499 c-94 -47 -137 -192 -65 -220 36 -13 73 12 73 50 0 16 9
40 21 55 l20 26 378 0 378 0 22 -24 22 -24 -29 -472 -29 -473 -27 -24 -27 -23
-308 0 c-225 0 -310 -3 -319 -12 -20 -20 -14 -65 10 -82 19 -14 66 -16 313
-16 306 0 347 5 401 45 61 46 62 53 95 580 l30 486 -21 45 c-14 28 -38 56 -63
72 l-41 27 -395 3 c-389 2 -397 2 -439 -19z"/>
<path d="M1660 2230 c-11 -11 -20 -27 -20 -35 0 -8 9 -24 20 -35 19 -19 33
-20 304 -20 245 0 287 2 300 16 21 21 20 57 -2 77 -16 15 -52 17 -300 17 -269
0 -283 -1 -302 -20z"/>
<path d="M1180 2157 c-14 -7 -34 -30 -44 -52 l-19 -39 44 -225 c41 -211 46
-228 76 -261 l31 -35 114 -3 c126 -4 151 5 151 51 0 50 -16 57 -124 57 -55 0
-99 3 -99 8 0 4 -18 91 -40 192 -22 101 -40 190 -40 197 0 10 32 13 133 13 72
0 137 4 143 8 6 4 16 17 23 30 10 19 10 28 -4 48 -15 24 -17 24 -168 24 -101
0 -160 -4 -177 -13z"/>
<path d="M1661 1924 c-19 -25 -19 -45 2 -71 13 -18 587 -19 605 -1 18 18 14
63 -6 81 -16 15 -52 17 -300 17 l-281 0 -20 -26z"/>
<path d="M1667 1632 c-20 -22 -22 -63 -5 -80 17 -17 589 -17 606 0 20 20 14
65 -10 82 -19 14 -65 16 -299 16 -255 0 -277 -1 -292 -18z"/>
</g>
</svg>
